<mxfile host="app.diagrams.net" modified="2024-03-12T17:41:02.106Z" agent="Mozilla/5.0 (Windows NT 10.0; Win64; x64) AppleWebKit/537.36 (KHTML, like Gecko) Chrome/122.0.0.0 Safari/537.36" etag="8XtsM2fX72vW_T-5y_NO" version="24.0.5" type="device">
  <diagram name="Página-1" id="eBi3r5bI5tWaVr12a482">
    <mxGraphModel dx="2607" dy="1356" grid="1" gridSize="10" guides="1" tooltips="1" connect="1" arrows="1" fold="1" page="1" pageScale="1" pageWidth="827" pageHeight="1169" math="0" shadow="0">
      <root>
        <mxCell id="0" />
        <mxCell id="1" parent="0" />
        <mxCell id="FHCaqyUNSViAq4FHQDON-6" style="edgeStyle=orthogonalEdgeStyle;rounded=0;orthogonalLoop=1;jettySize=auto;html=1;" parent="1" source="FHCaqyUNSViAq4FHQDON-1" edge="1">
          <mxGeometry relative="1" as="geometry">
            <mxPoint x="250" y="1270" as="targetPoint" />
          </mxGeometry>
        </mxCell>
        <mxCell id="FHCaqyUNSViAq4FHQDON-1" value="Secretaria&amp;nbsp;&lt;div&gt;(usuário)&lt;/div&gt;" style="shape=umlActor;verticalLabelPosition=bottom;verticalAlign=top;html=1;outlineConnect=0;" parent="1" vertex="1">
          <mxGeometry x="140" y="1240" width="30" height="60" as="geometry" />
        </mxCell>
        <mxCell id="FHCaqyUNSViAq4FHQDON-8" style="edgeStyle=orthogonalEdgeStyle;rounded=0;orthogonalLoop=1;jettySize=auto;html=1;exitX=1;exitY=0.5;exitDx=0;exitDy=0;entryX=0;entryY=0.5;entryDx=0;entryDy=0;entryPerimeter=0;" parent="1" source="FHCaqyUNSViAq4FHQDON-12" target="FHCaqyUNSViAq4FHQDON-11" edge="1">
          <mxGeometry relative="1" as="geometry">
            <mxPoint x="460" y="1270" as="targetPoint" />
          </mxGeometry>
        </mxCell>
        <mxCell id="FHCaqyUNSViAq4FHQDON-10" value="" style="edgeStyle=orthogonalEdgeStyle;rounded=0;orthogonalLoop=1;jettySize=auto;html=1;" parent="1" source="FHCaqyUNSViAq4FHQDON-2" target="FHCaqyUNSViAq4FHQDON-9" edge="1">
          <mxGeometry relative="1" as="geometry" />
        </mxCell>
        <mxCell id="FHCaqyUNSViAq4FHQDON-2" value="Servidor&amp;nbsp;&lt;div&gt;(Java)&lt;/div&gt;" style="rounded=1;whiteSpace=wrap;html=1;" parent="1" vertex="1">
          <mxGeometry x="250" y="1240" width="120" height="60" as="geometry" />
        </mxCell>
        <mxCell id="FHCaqyUNSViAq4FHQDON-7" value="Browser (HTTP)" style="text;html=1;align=center;verticalAlign=middle;whiteSpace=wrap;rounded=0;" parent="1" vertex="1">
          <mxGeometry x="180" y="1220" width="60" height="30" as="geometry" />
        </mxCell>
        <mxCell id="FHCaqyUNSViAq4FHQDON-9" value="SOLIS" style="rounded=1;whiteSpace=wrap;html=1;" parent="1" vertex="1">
          <mxGeometry x="270" y="1160" width="80" height="40" as="geometry" />
        </mxCell>
        <mxCell id="FHCaqyUNSViAq4FHQDON-11" value="Banco" style="shape=cylinder3;whiteSpace=wrap;html=1;boundedLbl=1;backgroundOutline=1;size=15;" parent="1" vertex="1">
          <mxGeometry x="470" y="1240" width="60" height="80" as="geometry" />
        </mxCell>
        <mxCell id="FHCaqyUNSViAq4FHQDON-12" value="Sistema" style="rounded=1;whiteSpace=wrap;html=1;" parent="1" vertex="1">
          <mxGeometry x="250" y="1410" width="120" height="60" as="geometry" />
        </mxCell>
        <mxCell id="FHCaqyUNSViAq4FHQDON-18" value="" style="endArrow=classic;html=1;rounded=0;exitX=0.5;exitY=1;exitDx=0;exitDy=0;entryX=0.5;entryY=0;entryDx=0;entryDy=0;" parent="1" source="FHCaqyUNSViAq4FHQDON-12" target="FHCaqyUNSViAq4FHQDON-20" edge="1">
          <mxGeometry width="50" height="50" relative="1" as="geometry">
            <mxPoint x="310" y="1470" as="sourcePoint" />
            <mxPoint x="310" y="1490" as="targetPoint" />
          </mxGeometry>
        </mxCell>
        <mxCell id="FHCaqyUNSViAq4FHQDON-19" value="" style="endArrow=classic;startArrow=classic;html=1;rounded=0;entryX=0.5;entryY=1;entryDx=0;entryDy=0;exitX=0.5;exitY=0;exitDx=0;exitDy=0;" parent="1" source="FHCaqyUNSViAq4FHQDON-12" target="FHCaqyUNSViAq4FHQDON-2" edge="1">
          <mxGeometry width="50" height="50" relative="1" as="geometry">
            <mxPoint x="300" y="1370" as="sourcePoint" />
            <mxPoint x="350" y="1320" as="targetPoint" />
          </mxGeometry>
        </mxCell>
        <mxCell id="FHCaqyUNSViAq4FHQDON-20" value="Projeto (classe)" style="rounded=1;whiteSpace=wrap;html=1;" parent="1" vertex="1">
          <mxGeometry x="250" y="1540" width="120" height="60" as="geometry" />
        </mxCell>
        <mxCell id="FHCaqyUNSViAq4FHQDON-21" value="" style="endArrow=none;dashed=1;html=1;rounded=0;exitX=0.25;exitY=1;exitDx=0;exitDy=0;entryX=0.5;entryY=0;entryDx=0;entryDy=0;" parent="1" source="FHCaqyUNSViAq4FHQDON-20" target="FHCaqyUNSViAq4FHQDON-28" edge="1">
          <mxGeometry width="50" height="50" relative="1" as="geometry">
            <mxPoint x="170" y="1620" as="sourcePoint" />
            <mxPoint x="260" y="1650" as="targetPoint" />
            <Array as="points" />
          </mxGeometry>
        </mxCell>
        <mxCell id="FHCaqyUNSViAq4FHQDON-23" value="" style="endArrow=none;dashed=1;html=1;rounded=0;entryX=0.5;entryY=1;entryDx=0;entryDy=0;exitX=0.5;exitY=0;exitDx=0;exitDy=0;" parent="1" source="Blnz8LIARVt7KsOHdzr9-27" target="FHCaqyUNSViAq4FHQDON-20" edge="1">
          <mxGeometry width="50" height="50" relative="1" as="geometry">
            <mxPoint x="400" y="1649.9999999999998" as="sourcePoint" />
            <mxPoint x="350" y="1610" as="targetPoint" />
          </mxGeometry>
        </mxCell>
        <mxCell id="FHCaqyUNSViAq4FHQDON-28" value="Aluno" style="swimlane;" parent="1" vertex="1">
          <mxGeometry x="145" y="1670" width="130" height="130" as="geometry" />
        </mxCell>
        <mxCell id="FHCaqyUNSViAq4FHQDON-29" value="&lt;ul&gt;&lt;li&gt;Nome&lt;/li&gt;&lt;li&gt;Curso&lt;/li&gt;&lt;li&gt;Matrícula&lt;/li&gt;&lt;li&gt;Frequência (%)&lt;/li&gt;&lt;li&gt;Média de Notas&lt;/li&gt;&lt;/ul&gt;" style="text;html=1;align=center;verticalAlign=middle;resizable=0;points=[];autosize=1;strokeColor=none;fillColor=none;" parent="FHCaqyUNSViAq4FHQDON-28" vertex="1">
          <mxGeometry x="-20" y="20" width="150" height="110" as="geometry" />
        </mxCell>
        <object placeholders="1" c4Name="Secretaria" c4Type="Person" label="&lt;font style=&quot;font-size: 16px&quot;&gt;&lt;b&gt;%c4Name%&lt;/b&gt;&lt;/font&gt;&lt;div&gt;[%c4Type%]&lt;/div&gt;&lt;br&gt;&lt;div&gt;&lt;font style=&quot;font-size: 11px&quot;&gt;&lt;font&gt;%c4Description%&lt;/font&gt;&lt;/font&gt;&lt;/div&gt;" c4Description="Usuário" id="eyaNLcUYtzhBkekJGC_--3">
          <mxCell style="html=1;fontSize=11;dashed=0;whiteSpace=wrap;fillColor=#d0cee2;shape=mxgraph.c4.person2;align=center;metaEdit=1;points=[[0.5,0,0],[1,0.5,0],[1,0.75,0],[0.75,1,0],[0.5,1,0],[0.25,1,0],[0,0.75,0],[0,0.5,0]];resizable=1;strokeColor=#56517e;labelBackgroundColor=none;fontColor=#080808;sketch=1;curveFitting=1;jiggle=2;" parent="1" vertex="1">
            <mxGeometry x="60" y="150" width="140" height="140" as="geometry" />
          </mxCell>
        </object>
        <mxCell id="eyaNLcUYtzhBkekJGC_--4" value="&lt;h1 style=&quot;margin-top: 0px;&quot;&gt;&lt;span style=&quot;background-color: initial;&quot;&gt;Fase 1&lt;/span&gt;&lt;/h1&gt;&lt;h1 style=&quot;margin-top: 0px;&quot;&gt;&lt;br&gt;&lt;/h1&gt;" style="text;html=1;whiteSpace=wrap;overflow=hidden;rounded=0;" parent="1" vertex="1">
          <mxGeometry x="40" y="40" width="110" height="40" as="geometry" />
        </mxCell>
        <object placeholders="1" c4Name="Gerenciamento Acadêmico" c4Type="Software System" c4Description="Iniciação Científica&#xa;&#xa;Gerenciamento de bolsas&#xa;Consulta de projetos" label="&lt;font style=&quot;font-size: 12px;&quot;&gt;&lt;b style=&quot;font-size: 12px;&quot;&gt;%c4Name%&lt;/b&gt;&lt;/font&gt;&lt;div style=&quot;font-size: 12px;&quot;&gt;[%c4Type%]&lt;/div&gt;&lt;br style=&quot;font-size: 12px;&quot;&gt;&lt;div style=&quot;font-size: 12px;&quot;&gt;&lt;font style=&quot;font-size: 12px;&quot;&gt;&lt;font style=&quot;font-size: 12px;&quot;&gt;%c4Description%&lt;/font&gt;&lt;/font&gt;&lt;/div&gt;" id="eyaNLcUYtzhBkekJGC_--6">
          <mxCell style="rounded=1;whiteSpace=wrap;html=1;labelBackgroundColor=none;fillColor=#f5f5f5;align=center;arcSize=10;strokeColor=#666666;metaEdit=1;resizable=1;points=[[0.25,0,0],[0.5,0,0],[0.75,0,0],[1,0.25,0],[1,0.5,0],[1,0.75,0],[0.75,1,0],[0.5,1,0],[0.25,1,0],[0,0.75,0],[0,0.5,0],[0,0.25,0]];fontColor=#000000;shadow=1;glass=0;strokeWidth=1;perimeterSpacing=0;spacing=0;spacingBottom=10;spacingLeft=9;fontSize=12;imageAspect=1;absoluteArcSize=0;noLabel=0;labelPadding=0;container=0;backgroundOutline=0;fixedWidth=0;sketch=1;curveFitting=1;jiggle=2;" parent="1" vertex="1">
            <mxGeometry x="750" y="140" width="280" height="160" as="geometry" />
          </mxCell>
        </object>
        <mxCell id="eyaNLcUYtzhBkekJGC_--13" value="&lt;h1 style=&quot;margin-top: 0px;&quot;&gt;Fase 2&lt;/h1&gt;" style="text;html=1;whiteSpace=wrap;overflow=hidden;rounded=0;" parent="1" vertex="1">
          <mxGeometry x="40" y="360" width="110" height="40" as="geometry" />
        </mxCell>
        <object placeholders="1" c4Name="Solis" c4Type="External Software System" c4Description="Portal Acadêmico" label="&lt;font style=&quot;font-size: 16px&quot;&gt;&lt;b&gt;%c4Name%&lt;/b&gt;&lt;/font&gt;&lt;div&gt;[%c4Type%]&lt;/div&gt;&lt;br&gt;&lt;div&gt;&lt;font style=&quot;font-size: 11px&quot;&gt;&lt;font&gt;%c4Description%&lt;/font&gt;&lt;/font&gt;&lt;/div&gt;" id="eyaNLcUYtzhBkekJGC_--21">
          <mxCell style="rounded=1;whiteSpace=wrap;html=1;labelBackgroundColor=none;fillColor=#d0cee2;align=center;arcSize=10;strokeColor=#56517e;metaEdit=1;resizable=0;points=[[0.25,0,0],[0.5,0,0],[0.75,0,0],[1,0.25,0],[1,0.5,0],[1,0.75,0],[0.75,1,0],[0.5,1,0],[0.25,1,0],[0,0.75,0],[0,0.5,0],[0,0.25,0]];fontColor=#000000;textShadow=0;labelBorderColor=none;shadow=1;glass=0;sketch=1;curveFitting=1;jiggle=2;" parent="1" vertex="1">
            <mxGeometry x="330" y="160" width="240" height="120" as="geometry" />
          </mxCell>
        </object>
        <object placeholders="1" c4Name="Front End" c4Type="Área" c4Description="Navegador, HTML, CSS, Framework" label="&lt;font style=&quot;font-size: 12px;&quot;&gt;&lt;b style=&quot;font-size: 12px;&quot;&gt;%c4Name%&lt;/b&gt;&lt;/font&gt;&lt;div style=&quot;font-size: 12px;&quot;&gt;[%c4Type%]&lt;/div&gt;&lt;br style=&quot;font-size: 12px;&quot;&gt;&lt;div style=&quot;font-size: 12px;&quot;&gt;&lt;font style=&quot;font-size: 12px;&quot;&gt;&lt;font style=&quot;font-size: 12px;&quot;&gt;%c4Description%&lt;/font&gt;&lt;/font&gt;&lt;/div&gt;" id="Blnz8LIARVt7KsOHdzr9-8">
          <mxCell style="rounded=1;whiteSpace=wrap;html=1;labelBackgroundColor=none;fillColor=#f5f5f5;align=center;arcSize=10;strokeColor=#666666;metaEdit=1;resizable=1;points=[[0.25,0,0],[0.5,0,0],[0.75,0,0],[1,0.25,0],[1,0.5,0],[1,0.75,0],[0.75,1,0],[0.5,1,0],[0.25,1,0],[0,0.75,0],[0,0.5,0],[0,0.25,0]];fontColor=#000000;shadow=1;glass=0;strokeWidth=1;perimeterSpacing=0;spacing=0;spacingBottom=10;spacingLeft=9;fontSize=12;imageAspect=1;absoluteArcSize=0;noLabel=0;labelPadding=0;container=0;backgroundOutline=0;fixedWidth=0;sketch=1;curveFitting=1;jiggle=2;" vertex="1" parent="1">
            <mxGeometry x="310" y="430" width="250" height="100" as="geometry" />
          </mxCell>
        </object>
        <object placeholders="1" c4Name="Secretaria" c4Type="Person" label="&lt;font style=&quot;font-size: 16px&quot;&gt;&lt;b&gt;%c4Name%&lt;/b&gt;&lt;/font&gt;&lt;div&gt;[%c4Type%]&lt;/div&gt;&lt;br&gt;&lt;div&gt;&lt;font style=&quot;font-size: 11px&quot;&gt;&lt;font&gt;%c4Description%&lt;/font&gt;&lt;/font&gt;&lt;/div&gt;" c4Description="Usuário" id="Blnz8LIARVt7KsOHdzr9-9">
          <mxCell style="html=1;fontSize=11;dashed=0;whiteSpace=wrap;fillColor=#d0cee2;shape=mxgraph.c4.person2;align=center;metaEdit=1;points=[[0.5,0,0],[1,0.5,0],[1,0.75,0],[0.75,1,0],[0.5,1,0],[0.25,1,0],[0,0.75,0],[0,0.5,0]];resizable=1;strokeColor=#56517e;labelBackgroundColor=none;fontColor=#080808;sketch=1;curveFitting=1;jiggle=2;" vertex="1" parent="1">
            <mxGeometry x="60" y="460" width="140" height="140" as="geometry" />
          </mxCell>
        </object>
        <mxCell id="Blnz8LIARVt7KsOHdzr9-17" style="edgeStyle=orthogonalEdgeStyle;rounded=0;orthogonalLoop=1;jettySize=auto;html=1;entryX=0;entryY=0.5;entryDx=0;entryDy=0;entryPerimeter=0;exitX=1;exitY=0.703;exitDx=0;exitDy=0;exitPerimeter=0;" edge="1" parent="1" source="Blnz8LIARVt7KsOHdzr9-9" target="Blnz8LIARVt7KsOHdzr9-8">
          <mxGeometry relative="1" as="geometry" />
        </mxCell>
        <mxCell id="Blnz8LIARVt7KsOHdzr9-19" value="Acessa" style="edgeLabel;html=1;align=center;verticalAlign=middle;resizable=0;points=[];" vertex="1" connectable="0" parent="Blnz8LIARVt7KsOHdzr9-17">
          <mxGeometry y="2" relative="1" as="geometry">
            <mxPoint as="offset" />
          </mxGeometry>
        </mxCell>
        <mxCell id="Blnz8LIARVt7KsOHdzr9-20" style="edgeStyle=orthogonalEdgeStyle;rounded=0;orthogonalLoop=1;jettySize=auto;html=1;entryX=0;entryY=0.5;entryDx=0;entryDy=0;entryPerimeter=0;" edge="1" parent="1" source="eyaNLcUYtzhBkekJGC_--3" target="eyaNLcUYtzhBkekJGC_--21">
          <mxGeometry relative="1" as="geometry" />
        </mxCell>
        <mxCell id="Blnz8LIARVt7KsOHdzr9-22" value="Acessa" style="edgeLabel;html=1;align=center;verticalAlign=middle;resizable=0;points=[];" vertex="1" connectable="0" parent="Blnz8LIARVt7KsOHdzr9-20">
          <mxGeometry x="-0.1692" y="-1" relative="1" as="geometry">
            <mxPoint as="offset" />
          </mxGeometry>
        </mxCell>
        <mxCell id="Blnz8LIARVt7KsOHdzr9-21" style="edgeStyle=orthogonalEdgeStyle;rounded=0;orthogonalLoop=1;jettySize=auto;html=1;entryX=0;entryY=0.5;entryDx=0;entryDy=0;entryPerimeter=0;" edge="1" parent="1" source="eyaNLcUYtzhBkekJGC_--21" target="eyaNLcUYtzhBkekJGC_--6">
          <mxGeometry relative="1" as="geometry" />
        </mxCell>
        <mxCell id="Blnz8LIARVt7KsOHdzr9-35" style="edgeStyle=orthogonalEdgeStyle;rounded=0;orthogonalLoop=1;jettySize=auto;html=1;entryX=1;entryY=0.5;entryDx=0;entryDy=0;entryPerimeter=0;" edge="1" parent="1" source="Blnz8LIARVt7KsOHdzr9-23" target="Blnz8LIARVt7KsOHdzr9-34">
          <mxGeometry relative="1" as="geometry">
            <mxPoint x="890" y="640" as="targetPoint" />
          </mxGeometry>
        </mxCell>
        <object placeholders="1" c4Name="Back End" c4Type="Área" c4Description="Java, Servlet" label="&lt;font style=&quot;font-size: 12px;&quot;&gt;&lt;b style=&quot;font-size: 12px;&quot;&gt;%c4Name%&lt;/b&gt;&lt;/font&gt;&lt;div style=&quot;font-size: 12px;&quot;&gt;[%c4Type%]&lt;/div&gt;&lt;br style=&quot;font-size: 12px;&quot;&gt;&lt;div style=&quot;font-size: 12px;&quot;&gt;&lt;font style=&quot;font-size: 12px;&quot;&gt;&lt;font style=&quot;font-size: 12px;&quot;&gt;%c4Description%&lt;/font&gt;&lt;/font&gt;&lt;/div&gt;" id="Blnz8LIARVt7KsOHdzr9-23">
          <mxCell style="rounded=1;whiteSpace=wrap;html=1;labelBackgroundColor=none;fillColor=#f5f5f5;align=center;arcSize=10;strokeColor=#666666;metaEdit=1;resizable=1;points=[[0.25,0,0],[0.5,0,0],[0.75,0,0],[1,0.25,0],[1,0.5,0],[1,0.75,0],[0.75,1,0],[0.5,1,0],[0.25,1,0],[0,0.75,0],[0,0.5,0],[0,0.25,0]];fontColor=#000000;shadow=1;glass=0;strokeWidth=1;perimeterSpacing=0;spacing=0;spacingBottom=10;spacingLeft=9;fontSize=12;imageAspect=1;absoluteArcSize=0;noLabel=0;labelPadding=0;container=0;backgroundOutline=0;fixedWidth=0;sketch=1;curveFitting=1;jiggle=2;" vertex="1" parent="1">
            <mxGeometry x="765" y="430" width="250" height="100" as="geometry" />
          </mxCell>
        </object>
        <mxCell id="Blnz8LIARVt7KsOHdzr9-24" style="edgeStyle=orthogonalEdgeStyle;rounded=0;orthogonalLoop=1;jettySize=auto;html=1;entryX=0;entryY=0.5;entryDx=0;entryDy=0;entryPerimeter=0;" edge="1" parent="1" source="Blnz8LIARVt7KsOHdzr9-8" target="Blnz8LIARVt7KsOHdzr9-23">
          <mxGeometry relative="1" as="geometry" />
        </mxCell>
        <mxCell id="Blnz8LIARVt7KsOHdzr9-25" value="Faz requisição à API&lt;div&gt;[HTTP]&lt;/div&gt;" style="edgeLabel;html=1;align=center;verticalAlign=middle;resizable=0;points=[];" vertex="1" connectable="0" parent="Blnz8LIARVt7KsOHdzr9-24">
          <mxGeometry x="-0.0737" y="11" relative="1" as="geometry">
            <mxPoint as="offset" />
          </mxGeometry>
        </mxCell>
        <object placeholders="1" c4Name="System name" c4Type="SystemScopeBoundary" c4Application="Software System" label="&lt;font style=&quot;font-size: 16px&quot;&gt;&lt;b&gt;&lt;div style=&quot;text-align: left&quot;&gt;%c4Name%&lt;/div&gt;&lt;/b&gt;&lt;/font&gt;&lt;div style=&quot;text-align: left&quot;&gt;[%c4Application%]&lt;/div&gt;" id="Blnz8LIARVt7KsOHdzr9-26">
          <mxCell style="rounded=1;fontSize=11;whiteSpace=wrap;html=1;dashed=1;arcSize=20;fillColor=none;strokeColor=#666666;fontColor=#333333;labelBackgroundColor=none;align=left;verticalAlign=bottom;labelBorderColor=none;spacingTop=0;spacing=10;dashPattern=8 4;metaEdit=1;rotatable=0;perimeter=rectanglePerimeter;noLabel=0;labelPadding=0;allowArrows=0;connectable=0;expand=0;recursiveResize=0;editable=1;pointerEvents=0;absoluteArcSize=1;points=[[0.25,0,0],[0.5,0,0],[0.75,0,0],[1,0.25,0],[1,0.5,0],[1,0.75,0],[0.75,1,0],[0.5,1,0],[0.25,1,0],[0,0.75,0],[0,0.5,0],[0,0.25,0]];" vertex="1" parent="1">
            <mxGeometry x="130" y="1370" width="500" height="500" as="geometry" />
          </mxCell>
        </object>
        <mxCell id="Blnz8LIARVt7KsOHdzr9-27" value="Bolsa" style="swimlane;" vertex="1" parent="1">
          <mxGeometry x="300" y="1700" width="130" height="130" as="geometry" />
        </mxCell>
        <mxCell id="Blnz8LIARVt7KsOHdzr9-28" value="&lt;ul&gt;&lt;li&gt;fdsfd&lt;/li&gt;&lt;/ul&gt;" style="text;html=1;align=center;verticalAlign=middle;resizable=0;points=[];autosize=1;strokeColor=none;fillColor=none;" vertex="1" parent="Blnz8LIARVt7KsOHdzr9-27">
          <mxGeometry x="10" y="50" width="90" height="50" as="geometry" />
        </mxCell>
        <mxCell id="Blnz8LIARVt7KsOHdzr9-31" value="Projeto" style="swimlane;" vertex="1" parent="1">
          <mxGeometry x="455" y="1640" width="130" height="130" as="geometry" />
        </mxCell>
        <mxCell id="Blnz8LIARVt7KsOHdzr9-32" value="&lt;ul&gt;&lt;li&gt;fdsfd&lt;/li&gt;&lt;/ul&gt;" style="text;html=1;align=center;verticalAlign=middle;resizable=0;points=[];autosize=1;strokeColor=none;fillColor=none;" vertex="1" parent="Blnz8LIARVt7KsOHdzr9-31">
          <mxGeometry x="10" y="50" width="90" height="50" as="geometry" />
        </mxCell>
        <mxCell id="Blnz8LIARVt7KsOHdzr9-33" value="" style="endArrow=none;dashed=1;html=1;rounded=0;entryX=1;entryY=0.5;entryDx=0;entryDy=0;exitX=0.5;exitY=0;exitDx=0;exitDy=0;" edge="1" parent="1" source="Blnz8LIARVt7KsOHdzr9-31" target="FHCaqyUNSViAq4FHQDON-20">
          <mxGeometry width="50" height="50" relative="1" as="geometry">
            <mxPoint x="472.5" y="1620" as="sourcePoint" />
            <mxPoint x="417.5" y="1520" as="targetPoint" />
          </mxGeometry>
        </mxCell>
        <object placeholders="1" c4Type="Banco" c4Container="Banco" c4Technology="e.g. Oracle Database 12" c4Description="Description of storage type container role/responsibility." label="&lt;font style=&quot;font-size: 16px&quot;&gt;&lt;b&gt;%c4Type%&lt;/b&gt;&lt;/font&gt;&lt;div&gt;[%c4Container%:&amp;nbsp;%c4Technology%]&lt;/div&gt;&lt;br&gt;&lt;div&gt;&lt;font style=&quot;font-size: 11px&quot;&gt;&lt;font&gt;%c4Description%&lt;/font&gt;&lt;/font&gt;&lt;/div&gt;" id="Blnz8LIARVt7KsOHdzr9-34">
          <mxCell style="shape=cylinder3;size=15;whiteSpace=wrap;html=1;boundedLbl=1;rounded=0;labelBackgroundColor=none;fillColor=#23A2D9;fontSize=12;fontColor=#030303;align=center;strokeColor=#0E7DAD;metaEdit=1;points=[[0.5,0,0],[1,0.25,0],[1,0.5,0],[1,0.75,0],[0.5,1,0],[0,0.75,0],[0,0.5,0],[0,0.25,0]];resizable=0;sketch=1;curveFitting=1;jiggle=2;" vertex="1" parent="1">
            <mxGeometry x="575" y="590" width="240" height="120" as="geometry" />
          </mxCell>
        </object>
        <mxCell id="Blnz8LIARVt7KsOHdzr9-36" value="&lt;h1 style=&quot;margin-top: 0px;&quot;&gt;Fase 3&lt;/h1&gt;" style="text;html=1;whiteSpace=wrap;overflow=hidden;rounded=0;" vertex="1" parent="1">
          <mxGeometry x="40" y="720" width="110" height="40" as="geometry" />
        </mxCell>
        <mxCell id="Blnz8LIARVt7KsOHdzr9-37" value="&lt;h1 style=&quot;margin-top: 0px;&quot;&gt;Fase 4&lt;/h1&gt;" style="text;html=1;whiteSpace=wrap;overflow=hidden;rounded=0;" vertex="1" parent="1">
          <mxGeometry x="40" y="1080" width="110" height="40" as="geometry" />
        </mxCell>
      </root>
    </mxGraphModel>
  </diagram>
</mxfile>
